<svg xmlns="http://www.w3.org/2000/svg" xmlns:xlink="http://www.w3.org/1999/xlink" width="500" zoomAndPan="magnify" viewBox="0 0 375 374.999991" height="500" preserveAspectRatio="xMidYMid meet" version="1.0"><defs><g/><clipPath id="13c333eec0"><path d="M 39.273438 27.46875 L 335.523438 27.46875 L 335.523438 347.71875 L 39.273438 347.71875 Z M 39.273438 27.46875 " clip-rule="nonzero"/></clipPath></defs><path fill="#1a1a1a" d="M 265.160156 106.011719 C 270.566406 110.289062 274.238281 112.402344 279.921875 115.980469 C 286.835938 120.34375 293.59375 126.789062 300.214844 131.902344 C 302.15625 133.402344 305.34375 136.382812 307.539062 137.042969 C 310.890625 138.050781 309.382812 137.671875 307.078125 135.496094 C 297.859375 126.753906 289.425781 118.296875 279.464844 110.386719 C 271.9375 104.410156 265.71875 98.039062 257.972656 92.128906 C 256.914062 91.324219 247.207031 83.78125 247.109375 83.742188 C 242.5625 82.828125 237.292969 83.863281 232.742188 83.992188 C 232.125 84.011719 227.4375 77.515625 226.652344 76.554688 C 222.742188 71.769531 218.484375 67.714844 213.746094 63.761719 C 206.472656 57.777344 199.6875 52.902344 193.132812 45.960938 C 191.988281 44.726562 192.664062 44.886719 190.960938 46.957031 C 185.46875 53.6875 182.523438 57.515625 176.011719 63.53125 C 171.71875 67.488281 167.382812 71.40625 162.855469 75.097656 C 159.507812 73.035156 156.324219 71.160156 153.125 68.84375 C 147.773438 75.0625 143.496094 81.179688 138.46875 87.457031 C 137.214844 89.019531 130.640625 96.339844 129.070312 96.84375 C 125.417969 98.019531 114.570312 98.710938 110.445312 98.851562 C 109.894531 98.863281 104.085938 98.925781 104.0625 98.9375 C 103.984375 98.972656 95.792969 107.394531 94.820312 108.332031 C 86.929688 115.917969 79.15625 122.621094 71.117188 129.902344 C 69.972656 130.9375 68.855469 131.984375 67.738281 133.050781 C 71.492188 132.550781 69.925781 132.96875 73.324219 130.71875 C 80.289062 126.101562 89.152344 122.15625 96.648438 118.015625 C 101.503906 115.332031 106.472656 112.742188 111.179688 109.808594 C 112.484375 108.996094 113.015625 109.289062 114.652344 109.136719 C 116.421875 108.960938 128.292969 107.519531 128.898438 106.75 C 133.339844 101.101562 137.691406 95.316406 143.964844 91.621094 C 147.3125 89.644531 148.824219 88.773438 151.753906 86.078125 C 155.503906 90.246094 157.964844 93.265625 161.320312 97.730469 C 162.011719 98.636719 161.683594 98.238281 160.46875 99.707031 C 157.453125 103.367188 154.925781 107.496094 151.875 111.28125 C 153.929688 113.074219 155.941406 114.863281 158.039062 116.613281 C 150.484375 123.550781 138.601562 129.582031 129.207031 133.710938 C 131.289062 136.191406 130.214844 135.894531 133.65625 134.910156 C 146.566406 131.214844 157.292969 122.550781 170.265625 120.253906 C 176.03125 119.226562 176.234375 120.648438 170.996094 116.417969 C 166.785156 112.957031 165.136719 110.632812 162.117188 106.304688 C 166.160156 99.128906 171.980469 98.929688 178.394531 93.832031 C 184.054688 89.332031 187.441406 84.867188 192.378906 79.875 C 189.96875 76.617188 185.648438 73.929688 184.734375 72.671875 C 184.132812 71.851562 186.203125 71.328125 187.15625 70.648438 C 190.386719 68.335938 192.269531 65.769531 194.65625 62.648438 C 202.894531 73.40625 201.964844 68.445312 211.664062 74.371094 C 215.820312 76.910156 226.566406 88.089844 230.121094 92.167969 C 231.320312 93.539062 231.015625 94.328125 231.449219 96.300781 C 232.441406 100.847656 234.277344 105.148438 234.601562 109.75 C 236.617188 106.828125 238.347656 103.769531 240.484375 100.714844 C 241.09375 99.839844 244.644531 94.367188 245.488281 94.539062 C 245.503906 94.539062 248.65625 96.117188 248.972656 96.25 C 255.125 98.820312 259.90625 101.929688 265.160156 106.011719 " fill-opacity="1" fill-rule="nonzero"/><g clip-path="url(#13c333eec0)"><path fill="#1a1a1a" d="M 62.183594 79.285156 C 92.515625 46.3125 134.871094 27.675781 179.671875 27.675781 C 222.144531 27.675781 262.496094 44.40625 292.539062 74.453125 C 313.535156 95.457031 328.332031 121.886719 335.132812 150.816406 C 335.578125 152.714844 334.398438 154.632812 332.5 155.082031 C 330.601562 155.527344 328.691406 154.339844 328.242188 152.441406 C 321.742188 124.792969 307.601562 99.539062 287.535156 79.464844 C 258.820312 50.742188 220.265625 34.765625 179.671875 34.765625 C 136.847656 34.765625 96.378906 52.566406 67.386719 84.085938 C 66.066406 85.523438 63.820312 85.613281 62.386719 84.289062 C 60.953125 82.96875 60.859375 80.722656 62.183594 79.285156 Z M 323.441406 257.320312 C 296.699219 312.507812 240.957031 347.535156 179.671875 347.535156 C 121.671875 347.535156 68.523438 316.1875 40.253906 265.683594 C 39.300781 263.976562 39.914062 261.8125 41.613281 260.859375 C 43.3125 259.902344 45.476562 260.511719 46.429688 262.214844 C 73.449219 310.492188 124.234375 340.453125 179.671875 340.453125 C 238.246094 340.453125 291.519531 306.976562 317.074219 254.226562 C 317.925781 252.472656 320.046875 251.730469 321.800781 252.585938 C 323.554688 253.4375 324.292969 255.558594 323.441406 257.320312 " fill-opacity="1" fill-rule="nonzero"/></g><path fill="#1a1a1a" d="M 266.875 294.25 L 268.652344 294.25 C 268.789062 294.25 268.898438 294.363281 268.898438 294.496094 L 268.898438 296.277344 C 268.898438 296.414062 268.789062 296.527344 268.652344 296.527344 L 266.875 296.527344 C 266.738281 296.527344 266.625 296.414062 266.625 296.277344 L 266.625 294.496094 C 266.625 294.363281 266.738281 294.25 266.875 294.25 " fill-opacity="1" fill-rule="nonzero"/><path fill="#1a1a1a" d="M 71.4375 88.003906 C 71.722656 88.042969 73.554688 86.382812 73.960938 86.09375 C 80.617188 81.382812 85.070312 79.1875 90.765625 72.890625 C 97.511719 65.449219 99.097656 66.335938 107.773438 62.34375 C 112.769531 60.011719 116.921875 58.1875 121.59375 55.164062 C 128.339844 50.796875 130.230469 52.242188 136.78125 49.792969 C 139.183594 48.894531 141.863281 47.65625 144.21875 46.585938 C 148.597656 44.574219 152.34375 42.964844 157.199219 42.46875 C 157.332031 40.949219 158.394531 40.921875 153.78125 42.003906 C 147.128906 43.65625 143.542969 45.0625 137.449219 48.042969 C 132.273438 50.574219 127.109375 51.167969 121.769531 53.824219 C 118.648438 55.378906 116.660156 56.332031 113.433594 57.671875 C 112.617188 58.011719 111.835938 58.359375 111.035156 58.734375 C 106.308594 60.984375 101.476562 63.433594 96.789062 65.785156 C 90.210938 69.09375 86.484375 74.042969 80.949219 78.816406 C 80.128906 79.523438 79.308594 80.226562 78.488281 80.929688 C 77.824219 81.5 70.941406 87.195312 71.277344 87.859375 Z M 254.277344 63.675781 C 265.574219 70.191406 280.5 83.339844 288.335938 93.828125 C 293.117188 100.21875 297.273438 106.613281 302.269531 112.941406 C 307.292969 119.304688 308.742188 120.941406 311.65625 128.328125 C 313.316406 132.558594 315.175781 136.464844 316.941406 140.621094 C 318.738281 144.902344 320.589844 148.140625 321.34375 152.800781 C 321.949219 156.550781 323.828125 155.980469 322.753906 151.394531 C 321.691406 146.878906 319.515625 141.605469 317.875 137.195312 C 314.511719 128.273438 308.59375 118.308594 302.640625 110.949219 C 297.644531 104.769531 295.105469 98.195312 290.257812 91.824219 C 283.464844 82.890625 268.457031 70.460938 259.25 63.4375 L 258.847656 63.128906 C 256.863281 61.625 254.855469 60.203125 252.785156 58.828125 C 252.914062 59.476562 253.539062 63.046875 253.777344 63.328125 Z M 270.980469 301.332031 C 265.976562 307.300781 262.039062 306.296875 255.453125 309.296875 C 245.664062 313.757812 239.78125 319.78125 228.753906 323.101562 C 223.726562 324.613281 219.070312 325.714844 214 327.433594 C 211.320312 328.34375 208.914062 329.121094 206.191406 329.839844 C 205.960938 330.738281 205.65625 331.46875 205.695312 332.414062 C 210.269531 331.804688 217.28125 329.195312 221.953125 327.785156 C 229.714844 325.441406 232.21875 324.878906 239.269531 320.519531 C 245.453125 316.691406 249.847656 314.511719 256.507812 311.648438 C 264.847656 308.0625 267.179688 307.164062 274.308594 301.367188 C 279.835938 296.886719 280.558594 295.222656 284.238281 289.550781 C 286.171875 286.570312 290.945312 283.003906 293.523438 279.730469 C 296.175781 276.359375 298.597656 272.765625 301.308594 269.324219 C 305.804688 263.621094 310.007812 257.039062 312.949219 250.382812 C 314.488281 246.886719 312.105469 248.125 310.535156 250.582031 C 305.425781 258.570312 302.167969 265.394531 295.789062 272.734375 C 291.359375 277.835938 287.992188 282.066406 284.164062 287.632812 C 281.300781 291.792969 275.425781 296.09375 271.875 300.28125 Z M 53.101562 263.066406 C 55.210938 266.71875 57.605469 271.304688 59.890625 274.695312 C 64.75 281.808594 66.847656 282.796875 73.019531 288.199219 C 77.164062 291.828125 80.015625 295.222656 83.269531 299.558594 C 88.253906 306.207031 93.96875 305.847656 99.8125 311.265625 C 103.679688 314.894531 109.191406 319.238281 114.027344 321.496094 C 113.40625 320.070312 114.421875 321.199219 112.828125 320.164062 C 106.734375 316.210938 101.773438 309.277344 95.703125 306.226562 C 89.535156 303.320312 88.203125 304.203125 83.941406 298.042969 C 82.144531 295.445312 79.648438 292.527344 77.644531 290.003906 C 73.582031 284.886719 68.554688 281.796875 64.285156 276.554688 C 60.214844 271.558594 57.230469 266.433594 54.964844 260.394531 C 53.554688 256.550781 50.640625 258.597656 52.835938 262.585938 Z M 53.101562 263.066406 " fill-opacity="1" fill-rule="nonzero"/><g fill="#000000" fill-opacity="1"><g transform="translate(11.939927, 231.050635)"><g><path d="M 33.359375 -44.75 L 24.359375 -44.75 L 24.359375 -46.78125 C 24.359375 -48.84375 23.875 -50.625 22.90625 -52.125 C 21.9375 -53.625 20.300781 -54.375 18 -54.375 C 16.769531 -54.375 15.753906 -54.132812 14.953125 -53.65625 C 14.160156 -53.1875 13.546875 -52.582031 13.109375 -51.84375 C 12.671875 -51.113281 12.363281 -50.265625 12.1875 -49.296875 C 12.007812 -48.328125 11.921875 -47.3125 11.921875 -46.25 C 11.921875 -45.007812 11.960938 -43.960938 12.046875 -43.109375 C 12.140625 -42.265625 12.359375 -41.53125 12.703125 -40.90625 C 13.054688 -40.289062 13.570312 -39.75 14.25 -39.28125 C 14.925781 -38.8125 15.851562 -38.335938 17.03125 -37.859375 L 23.921875 -35.125 C 25.921875 -34.363281 27.535156 -33.46875 28.765625 -32.4375 C 30.003906 -31.40625 30.960938 -30.195312 31.640625 -28.8125 C 32.316406 -27.4375 32.769531 -25.847656 33 -24.046875 C 33.238281 -22.253906 33.359375 -20.210938 33.359375 -17.921875 C 33.359375 -15.273438 33.09375 -12.816406 32.5625 -10.546875 C 32.039062 -8.285156 31.175781 -6.34375 29.96875 -4.71875 C 28.757812 -3.101562 27.15625 -1.820312 25.15625 -0.875 C 23.15625 0.0625 20.710938 0.53125 17.828125 0.53125 C 15.648438 0.53125 13.617188 0.148438 11.734375 -0.609375 C 9.859375 -1.378906 8.242188 -2.425781 6.890625 -3.75 C 5.535156 -5.070312 4.457031 -6.644531 3.65625 -8.46875 C 2.863281 -10.289062 2.46875 -12.265625 2.46875 -14.390625 L 2.46875 -17.734375 L 11.46875 -17.734375 L 11.46875 -14.921875 C 11.46875 -13.273438 11.953125 -11.785156 12.921875 -10.453125 C 13.898438 -9.128906 15.535156 -8.46875 17.828125 -8.46875 C 19.359375 -8.46875 20.550781 -8.6875 21.40625 -9.125 C 22.257812 -9.570312 22.90625 -10.191406 23.34375 -10.984375 C 23.789062 -11.785156 24.070312 -12.773438 24.1875 -13.953125 C 24.300781 -15.128906 24.359375 -16.421875 24.359375 -17.828125 C 24.359375 -19.472656 24.300781 -20.828125 24.1875 -21.890625 C 24.070312 -22.953125 23.820312 -23.804688 23.4375 -24.453125 C 23.050781 -25.097656 22.519531 -25.625 21.84375 -26.03125 C 21.164062 -26.445312 20.269531 -26.890625 19.15625 -27.359375 L 12.703125 -30.015625 C 8.828125 -31.597656 6.222656 -33.695312 4.890625 -36.3125 C 3.566406 -38.9375 2.90625 -42.21875 2.90625 -46.15625 C 2.90625 -48.507812 3.226562 -50.742188 3.875 -52.859375 C 4.53125 -54.984375 5.488281 -56.8125 6.75 -58.34375 C 8.019531 -59.875 9.625 -61.09375 11.5625 -62 C 13.5 -62.914062 15.765625 -63.375 18.359375 -63.375 C 20.597656 -63.375 22.644531 -62.960938 24.5 -62.140625 C 26.351562 -61.316406 27.941406 -60.226562 29.265625 -58.875 C 30.585938 -57.519531 31.597656 -56.003906 32.296875 -54.328125 C 33.003906 -52.648438 33.359375 -50.925781 33.359375 -49.15625 Z M 33.359375 -44.75 "/></g></g></g><g fill="#000000" fill-opacity="1"><g transform="translate(47.775298, 231.050635)"><g><path d="M 3.703125 -48.015625 C 3.703125 -50.546875 4.144531 -52.78125 5.03125 -54.71875 C 5.914062 -56.664062 7.078125 -58.269531 8.515625 -59.53125 C 9.960938 -60.800781 11.582031 -61.757812 13.375 -62.40625 C 15.164062 -63.050781 16.972656 -63.375 18.796875 -63.375 C 20.617188 -63.375 22.425781 -63.050781 24.21875 -62.40625 C 26.019531 -61.757812 27.640625 -60.800781 29.078125 -59.53125 C 30.523438 -58.269531 31.6875 -56.664062 32.5625 -54.71875 C 33.445312 -52.78125 33.890625 -50.546875 33.890625 -48.015625 L 33.890625 -14.828125 C 33.890625 -12.234375 33.445312 -9.976562 32.5625 -8.0625 C 31.6875 -6.15625 30.523438 -4.566406 29.078125 -3.296875 C 27.640625 -2.035156 26.019531 -1.082031 24.21875 -0.4375 C 22.425781 0.207031 20.617188 0.53125 18.796875 0.53125 C 16.972656 0.53125 15.164062 0.207031 13.375 -0.4375 C 11.582031 -1.082031 9.960938 -2.035156 8.515625 -3.296875 C 7.078125 -4.566406 5.914062 -6.15625 5.03125 -8.0625 C 4.144531 -9.976562 3.703125 -12.234375 3.703125 -14.828125 Z M 12.703125 -14.828125 C 12.703125 -12.648438 13.304688 -11.046875 14.515625 -10.015625 C 15.722656 -8.984375 17.148438 -8.46875 18.796875 -8.46875 C 20.441406 -8.46875 21.867188 -8.984375 23.078125 -10.015625 C 24.285156 -11.046875 24.890625 -12.648438 24.890625 -14.828125 L 24.890625 -48.015625 C 24.890625 -50.191406 24.285156 -51.796875 23.078125 -52.828125 C 21.867188 -53.859375 20.441406 -54.375 18.796875 -54.375 C 17.148438 -54.375 15.722656 -53.859375 14.515625 -52.828125 C 13.304688 -51.796875 12.703125 -50.191406 12.703125 -48.015625 Z M 12.703125 -14.828125 "/></g></g></g><g fill="#000000" fill-opacity="1"><g transform="translate(85.375982, 231.050635)"><g><path d="M 4.234375 -62.84375 L 13.234375 -62.84375 L 13.234375 -9 L 31.0625 -9 L 31.0625 0 L 4.234375 0 Z M 4.234375 -62.84375 "/></g></g></g><g fill="#000000" fill-opacity="1"><g transform="translate(118.03385, 231.050635)"><g><path d="M 4.234375 -62.84375 L 31.0625 -62.84375 L 31.0625 -54.375 L 13.234375 -54.375 L 13.234375 -35.921875 L 28.78125 -35.921875 L 28.78125 -27.453125 L 13.234375 -27.453125 L 13.234375 -9 L 31.0625 -9 L 31.0625 0 L 4.234375 0 Z M 4.234375 -62.84375 "/></g></g></g><g fill="#000000" fill-opacity="1"><g transform="translate(150.691718, 231.050635)"><g/></g></g><g fill="#000000" fill-opacity="1"><g transform="translate(167.108916, 231.050635)"><g><path d="M 33.359375 -44.75 L 24.359375 -44.75 L 24.359375 -46.78125 C 24.359375 -48.84375 23.875 -50.625 22.90625 -52.125 C 21.9375 -53.625 20.300781 -54.375 18 -54.375 C 16.769531 -54.375 15.753906 -54.132812 14.953125 -53.65625 C 14.160156 -53.1875 13.546875 -52.582031 13.109375 -51.84375 C 12.671875 -51.113281 12.363281 -50.265625 12.1875 -49.296875 C 12.007812 -48.328125 11.921875 -47.3125 11.921875 -46.25 C 11.921875 -45.007812 11.960938 -43.960938 12.046875 -43.109375 C 12.140625 -42.265625 12.359375 -41.53125 12.703125 -40.90625 C 13.054688 -40.289062 13.570312 -39.75 14.25 -39.28125 C 14.925781 -38.8125 15.851562 -38.335938 17.03125 -37.859375 L 23.921875 -35.125 C 25.921875 -34.363281 27.535156 -33.46875 28.765625 -32.4375 C 30.003906 -31.40625 30.960938 -30.195312 31.640625 -28.8125 C 32.316406 -27.4375 32.769531 -25.847656 33 -24.046875 C 33.238281 -22.253906 33.359375 -20.210938 33.359375 -17.921875 C 33.359375 -15.273438 33.09375 -12.816406 32.5625 -10.546875 C 32.039062 -8.285156 31.175781 -6.34375 29.96875 -4.71875 C 28.757812 -3.101562 27.15625 -1.820312 25.15625 -0.875 C 23.15625 0.0625 20.710938 0.53125 17.828125 0.53125 C 15.648438 0.53125 13.617188 0.148438 11.734375 -0.609375 C 9.859375 -1.378906 8.242188 -2.425781 6.890625 -3.75 C 5.535156 -5.070312 4.457031 -6.644531 3.65625 -8.46875 C 2.863281 -10.289062 2.46875 -12.265625 2.46875 -14.390625 L 2.46875 -17.734375 L 11.46875 -17.734375 L 11.46875 -14.921875 C 11.46875 -13.273438 11.953125 -11.785156 12.921875 -10.453125 C 13.898438 -9.128906 15.535156 -8.46875 17.828125 -8.46875 C 19.359375 -8.46875 20.550781 -8.6875 21.40625 -9.125 C 22.257812 -9.570312 22.90625 -10.191406 23.34375 -10.984375 C 23.789062 -11.785156 24.070312 -12.773438 24.1875 -13.953125 C 24.300781 -15.128906 24.359375 -16.421875 24.359375 -17.828125 C 24.359375 -19.472656 24.300781 -20.828125 24.1875 -21.890625 C 24.070312 -22.953125 23.820312 -23.804688 23.4375 -24.453125 C 23.050781 -25.097656 22.519531 -25.625 21.84375 -26.03125 C 21.164062 -26.445312 20.269531 -26.890625 19.15625 -27.359375 L 12.703125 -30.015625 C 8.828125 -31.597656 6.222656 -33.695312 4.890625 -36.3125 C 3.566406 -38.9375 2.90625 -42.21875 2.90625 -46.15625 C 2.90625 -48.507812 3.226562 -50.742188 3.875 -52.859375 C 4.53125 -54.984375 5.488281 -56.8125 6.75 -58.34375 C 8.019531 -59.875 9.625 -61.09375 11.5625 -62 C 13.5 -62.914062 15.765625 -63.375 18.359375 -63.375 C 20.597656 -63.375 22.644531 -62.960938 24.5 -62.140625 C 26.351562 -61.316406 27.941406 -60.226562 29.265625 -58.875 C 30.585938 -57.519531 31.597656 -56.003906 32.296875 -54.328125 C 33.003906 -52.648438 33.359375 -50.925781 33.359375 -49.15625 Z M 33.359375 -44.75 "/></g></g></g><g fill="#000000" fill-opacity="1"><g transform="translate(202.944287, 231.050635)"><g><path d="M 10.15625 -54.375 L -0.265625 -54.375 L -0.265625 -62.84375 L 29.5625 -62.84375 L 29.5625 -54.375 L 19.15625 -54.375 L 19.15625 0 L 10.15625 0 Z M 10.15625 -54.375 "/></g></g></g><g fill="#000000" fill-opacity="1"><g transform="translate(232.248092, 231.050635)"><g><path d="M 33.359375 -14.125 C 33.359375 -12.0625 32.972656 -10.144531 32.203125 -8.375 C 31.441406 -6.613281 30.398438 -5.070312 29.078125 -3.75 C 27.753906 -2.425781 26.207031 -1.378906 24.4375 -0.609375 C 22.675781 0.148438 20.796875 0.53125 18.796875 0.53125 C 16.796875 0.53125 14.910156 0.148438 13.140625 -0.609375 C 11.378906 -1.378906 9.835938 -2.425781 8.515625 -3.75 C 7.191406 -5.070312 6.144531 -6.613281 5.375 -8.375 C 4.613281 -10.144531 4.234375 -12.0625 4.234375 -14.125 L 4.234375 -62.84375 L 13.234375 -62.84375 L 13.234375 -15 C 13.234375 -12.769531 13.765625 -11.125 14.828125 -10.0625 C 15.890625 -9 17.210938 -8.46875 18.796875 -8.46875 C 20.390625 -8.46875 21.710938 -9 22.765625 -10.0625 C 23.828125 -11.125 24.359375 -12.769531 24.359375 -15 L 24.359375 -62.84375 L 33.359375 -62.84375 Z M 33.359375 -14.125 "/></g></g></g><g fill="#000000" fill-opacity="1"><g transform="translate(269.848776, 231.050635)"><g><path d="M 4.234375 -62.84375 L 17.5625 -62.84375 C 22.6875 -62.84375 26.597656 -61.414062 29.296875 -58.5625 C 32.003906 -55.707031 33.359375 -51.722656 33.359375 -46.609375 L 33.359375 -17.21875 C 33.359375 -11.332031 31.929688 -6.988281 29.078125 -4.1875 C 26.222656 -1.394531 22.117188 0 16.765625 0 L 4.234375 0 Z M 13.234375 -8.46875 L 17.390625 -8.46875 C 19.921875 -8.46875 21.710938 -9.097656 22.765625 -10.359375 C 23.828125 -11.628906 24.359375 -13.617188 24.359375 -16.328125 L 24.359375 -46.609375 C 24.359375 -49.078125 23.859375 -50.988281 22.859375 -52.34375 C 21.859375 -53.695312 20.035156 -54.375 17.390625 -54.375 L 13.234375 -54.375 Z M 13.234375 -8.46875 "/></g></g></g><g fill="#000000" fill-opacity="1"><g transform="translate(307.44946, 231.050635)"><g><path d="M 4.5 -62.84375 L 13.5 -62.84375 L 13.5 0 L 4.5 0 Z M 4.5 -62.84375 "/></g></g></g><g fill="#000000" fill-opacity="1"><g transform="translate(325.455409, 231.050635)"><g><path d="M 3.703125 -48.015625 C 3.703125 -50.546875 4.144531 -52.78125 5.03125 -54.71875 C 5.914062 -56.664062 7.078125 -58.269531 8.515625 -59.53125 C 9.960938 -60.800781 11.582031 -61.757812 13.375 -62.40625 C 15.164062 -63.050781 16.972656 -63.375 18.796875 -63.375 C 20.617188 -63.375 22.425781 -63.050781 24.21875 -62.40625 C 26.019531 -61.757812 27.640625 -60.800781 29.078125 -59.53125 C 30.523438 -58.269531 31.6875 -56.664062 32.5625 -54.71875 C 33.445312 -52.78125 33.890625 -50.546875 33.890625 -48.015625 L 33.890625 -14.828125 C 33.890625 -12.234375 33.445312 -9.976562 32.5625 -8.0625 C 31.6875 -6.15625 30.523438 -4.566406 29.078125 -3.296875 C 27.640625 -2.035156 26.019531 -1.082031 24.21875 -0.4375 C 22.425781 0.207031 20.617188 0.53125 18.796875 0.53125 C 16.972656 0.53125 15.164062 0.207031 13.375 -0.4375 C 11.582031 -1.082031 9.960938 -2.035156 8.515625 -3.296875 C 7.078125 -4.566406 5.914062 -6.15625 5.03125 -8.0625 C 4.144531 -9.976562 3.703125 -12.234375 3.703125 -14.828125 Z M 12.703125 -14.828125 C 12.703125 -12.648438 13.304688 -11.046875 14.515625 -10.015625 C 15.722656 -8.984375 17.148438 -8.46875 18.796875 -8.46875 C 20.441406 -8.46875 21.867188 -8.984375 23.078125 -10.015625 C 24.285156 -11.046875 24.890625 -12.648438 24.890625 -14.828125 L 24.890625 -48.015625 C 24.890625 -50.191406 24.285156 -51.796875 23.078125 -52.828125 C 21.867188 -53.859375 20.441406 -54.375 18.796875 -54.375 C 17.148438 -54.375 15.722656 -53.859375 14.515625 -52.828125 C 13.304688 -51.796875 12.703125 -50.191406 12.703125 -48.015625 Z M 12.703125 -14.828125 "/></g></g></g><g fill="#000000" fill-opacity="1"><g transform="translate(129.673854, 280.077577)"><g><path d="M 1.875 -27.75 L 13.71875 -27.75 L 13.71875 -24 L 5.84375 -24 L 5.84375 -15.859375 L 12.703125 -15.859375 L 12.703125 -12.125 L 5.84375 -12.125 L 5.84375 -3.96875 L 13.71875 -3.96875 L 13.71875 0 L 1.875 0 Z M 1.875 -27.75 "/></g></g></g><g fill="#000000" fill-opacity="1"><g transform="translate(144.091418, 280.077577)"><g><path d="M 14.734375 -19.75 L 10.75 -19.75 L 10.75 -20.65625 C 10.75 -21.5625 10.535156 -22.34375 10.109375 -23 C 9.679688 -23.664062 8.960938 -24 7.953125 -24 C 7.398438 -24 6.945312 -23.894531 6.59375 -23.6875 C 6.25 -23.476562 5.976562 -23.210938 5.78125 -22.890625 C 5.59375 -22.566406 5.457031 -22.191406 5.375 -21.765625 C 5.300781 -21.335938 5.265625 -20.890625 5.265625 -20.421875 C 5.265625 -19.867188 5.28125 -19.40625 5.3125 -19.03125 C 5.351562 -18.65625 5.453125 -18.332031 5.609375 -18.0625 C 5.765625 -17.789062 5.988281 -17.550781 6.28125 -17.34375 C 6.582031 -17.132812 6.992188 -16.925781 7.515625 -16.71875 L 10.5625 -15.515625 C 11.445312 -15.171875 12.160156 -14.769531 12.703125 -14.3125 C 13.242188 -13.863281 13.664062 -13.332031 13.96875 -12.71875 C 14.269531 -12.113281 14.472656 -11.414062 14.578125 -10.625 C 14.679688 -9.832031 14.734375 -8.925781 14.734375 -7.90625 C 14.734375 -6.738281 14.613281 -5.65625 14.375 -4.65625 C 14.144531 -3.65625 13.765625 -2.796875 13.234375 -2.078125 C 12.703125 -1.367188 11.992188 -0.804688 11.109375 -0.390625 C 10.222656 0.0234375 9.144531 0.234375 7.875 0.234375 C 6.914062 0.234375 6.019531 0.0664062 5.1875 -0.265625 C 4.351562 -0.609375 3.632812 -1.070312 3.03125 -1.65625 C 2.4375 -2.238281 1.960938 -2.929688 1.609375 -3.734375 C 1.265625 -4.546875 1.09375 -5.421875 1.09375 -6.359375 L 1.09375 -7.828125 L 5.0625 -7.828125 L 5.0625 -6.578125 C 5.0625 -5.859375 5.273438 -5.203125 5.703125 -4.609375 C 6.140625 -4.023438 6.863281 -3.734375 7.875 -3.734375 C 8.550781 -3.734375 9.078125 -3.832031 9.453125 -4.03125 C 9.828125 -4.226562 10.109375 -4.5 10.296875 -4.84375 C 10.492188 -5.195312 10.617188 -5.632812 10.671875 -6.15625 C 10.722656 -6.675781 10.75 -7.25 10.75 -7.875 C 10.75 -8.601562 10.722656 -9.195312 10.671875 -9.65625 C 10.617188 -10.125 10.507812 -10.5 10.34375 -10.78125 C 10.175781 -11.070312 9.941406 -11.304688 9.640625 -11.484375 C 9.347656 -11.671875 8.953125 -11.867188 8.453125 -12.078125 L 5.609375 -13.25 C 3.898438 -13.945312 2.75 -14.875 2.15625 -16.03125 C 1.570312 -17.1875 1.28125 -18.632812 1.28125 -20.375 C 1.28125 -21.414062 1.421875 -22.40625 1.703125 -23.34375 C 1.992188 -24.28125 2.414062 -25.082031 2.96875 -25.75 C 3.53125 -26.425781 4.238281 -26.96875 5.09375 -27.375 C 5.957031 -27.78125 6.960938 -27.984375 8.109375 -27.984375 C 9.097656 -27.984375 10 -27.800781 10.8125 -27.4375 C 11.632812 -27.070312 12.335938 -26.585938 12.921875 -25.984375 C 13.503906 -25.390625 13.953125 -24.722656 14.265625 -23.984375 C 14.578125 -23.242188 14.734375 -22.484375 14.734375 -21.703125 Z M 14.734375 -19.75 "/></g></g></g><g fill="#000000" fill-opacity="1"><g transform="translate(159.911764, 280.077577)"><g><path d="M 4.484375 -24 L -0.109375 -24 L -0.109375 -27.75 L 13.046875 -27.75 L 13.046875 -24 L 8.453125 -24 L 8.453125 0 L 4.484375 0 Z M 4.484375 -24 "/></g></g></g><g fill="#000000" fill-opacity="1"><g transform="translate(172.8486, 280.077577)"><g><path d="M 1.640625 -3.96875 L 5.609375 -3.96875 L 5.609375 0 L 1.640625 0 Z M 1.640625 -3.96875 "/></g></g></g><g fill="#000000" fill-opacity="1"><g transform="translate(180.096348, 280.077577)"><g/></g></g><g fill="#000000" fill-opacity="1"><g transform="translate(187.344096, 280.077577)"><g><path d="M 1.328125 -3.734375 L 8.5 -17.265625 C 8.863281 -17.941406 9.070312 -18.53125 9.125 -19.03125 C 9.175781 -19.539062 9.203125 -20.171875 9.203125 -20.921875 C 9.203125 -21.265625 9.1875 -21.625 9.15625 -22 C 9.132812 -22.375 9.0625 -22.703125 8.9375 -22.984375 C 8.820312 -23.273438 8.632812 -23.515625 8.375 -23.703125 C 8.113281 -23.898438 7.738281 -24 7.25 -24 C 6.65625 -24 6.179688 -23.828125 5.828125 -23.484375 C 5.472656 -23.148438 5.296875 -22.660156 5.296875 -22.015625 L 5.296875 -19.75 L 1.328125 -19.75 L 1.328125 -21.9375 C 1.328125 -22.769531 1.484375 -23.550781 1.796875 -24.28125 C 2.109375 -25.007812 2.53125 -25.644531 3.0625 -26.1875 C 3.59375 -26.726562 4.222656 -27.160156 4.953125 -27.484375 C 5.679688 -27.816406 6.457031 -27.984375 7.28125 -27.984375 C 8.320312 -27.984375 9.210938 -27.789062 9.953125 -27.40625 C 10.691406 -27.03125 11.300781 -26.519531 11.78125 -25.875 C 12.269531 -25.226562 12.625 -24.488281 12.84375 -23.65625 C 13.0625 -22.820312 13.171875 -21.9375 13.171875 -21 C 13.171875 -20.320312 13.15625 -19.753906 13.125 -19.296875 C 13.101562 -18.847656 13.050781 -18.414062 12.96875 -18 C 12.894531 -17.582031 12.765625 -17.164062 12.578125 -16.75 C 12.398438 -16.34375 12.15625 -15.835938 11.84375 -15.234375 L 6 -3.96875 L 13.171875 -3.96875 L 13.171875 0 L 1.328125 0 Z M 1.328125 -3.734375 "/></g></g></g><g fill="#000000" fill-opacity="1"><g transform="translate(201.839592, 280.077577)"><g><path d="M 1.328125 -22.015625 C 1.328125 -22.953125 1.488281 -23.785156 1.8125 -24.515625 C 2.132812 -25.242188 2.566406 -25.863281 3.109375 -26.375 C 3.660156 -26.894531 4.289062 -27.289062 5 -27.5625 C 5.71875 -27.84375 6.46875 -27.984375 7.25 -27.984375 C 8.03125 -27.984375 8.773438 -27.84375 9.484375 -27.5625 C 10.203125 -27.289062 10.832031 -26.894531 11.375 -26.375 C 11.925781 -25.863281 12.363281 -25.242188 12.6875 -24.515625 C 13.007812 -23.785156 13.171875 -22.953125 13.171875 -22.015625 L 13.171875 -5.734375 C 13.171875 -4.796875 13.007812 -3.960938 12.6875 -3.234375 C 12.363281 -2.503906 11.925781 -1.878906 11.375 -1.359375 C 10.832031 -0.835938 10.203125 -0.441406 9.484375 -0.171875 C 8.773438 0.0976562 8.03125 0.234375 7.25 0.234375 C 6.46875 0.234375 5.71875 0.0976562 5 -0.171875 C 4.289062 -0.441406 3.660156 -0.835938 3.109375 -1.359375 C 2.566406 -1.878906 2.132812 -2.503906 1.8125 -3.234375 C 1.488281 -3.960938 1.328125 -4.796875 1.328125 -5.734375 Z M 5.296875 -5.734375 C 5.296875 -5.160156 5.476562 -4.679688 5.84375 -4.296875 C 6.207031 -3.921875 6.675781 -3.734375 7.25 -3.734375 C 7.820312 -3.734375 8.289062 -3.921875 8.65625 -4.296875 C 9.019531 -4.679688 9.203125 -5.160156 9.203125 -5.734375 L 9.203125 -22.015625 C 9.203125 -22.585938 9.019531 -23.0625 8.65625 -23.4375 C 8.289062 -23.8125 7.820312 -24 7.25 -24 C 6.675781 -24 6.207031 -23.8125 5.84375 -23.4375 C 5.476562 -23.0625 5.296875 -22.585938 5.296875 -22.015625 Z M 5.296875 -5.734375 "/></g></g></g><g fill="#000000" fill-opacity="1"><g transform="translate(216.335089, 280.077577)"><g><path d="M 1.328125 -3.734375 L 8.5 -17.265625 C 8.863281 -17.941406 9.070312 -18.53125 9.125 -19.03125 C 9.175781 -19.539062 9.203125 -20.171875 9.203125 -20.921875 C 9.203125 -21.265625 9.1875 -21.625 9.15625 -22 C 9.132812 -22.375 9.0625 -22.703125 8.9375 -22.984375 C 8.820312 -23.273438 8.632812 -23.515625 8.375 -23.703125 C 8.113281 -23.898438 7.738281 -24 7.25 -24 C 6.65625 -24 6.179688 -23.828125 5.828125 -23.484375 C 5.472656 -23.148438 5.296875 -22.660156 5.296875 -22.015625 L 5.296875 -19.75 L 1.328125 -19.75 L 1.328125 -21.9375 C 1.328125 -22.769531 1.484375 -23.550781 1.796875 -24.28125 C 2.109375 -25.007812 2.53125 -25.644531 3.0625 -26.1875 C 3.59375 -26.726562 4.222656 -27.160156 4.953125 -27.484375 C 5.679688 -27.816406 6.457031 -27.984375 7.28125 -27.984375 C 8.320312 -27.984375 9.210938 -27.789062 9.953125 -27.40625 C 10.691406 -27.03125 11.300781 -26.519531 11.78125 -25.875 C 12.269531 -25.226562 12.625 -24.488281 12.84375 -23.65625 C 13.0625 -22.820312 13.171875 -21.9375 13.171875 -21 C 13.171875 -20.320312 13.15625 -19.753906 13.125 -19.296875 C 13.101562 -18.847656 13.050781 -18.414062 12.96875 -18 C 12.894531 -17.582031 12.765625 -17.164062 12.578125 -16.75 C 12.398438 -16.34375 12.15625 -15.835938 11.84375 -15.234375 L 6 -3.96875 L 13.171875 -3.96875 L 13.171875 0 L 1.328125 0 Z M 1.328125 -3.734375 "/></g></g></g><g fill="#000000" fill-opacity="1"><g transform="translate(230.830585, 280.077577)"><g><path d="M 6.046875 -16.0625 C 7.234375 -16.0625 8.054688 -16.203125 8.515625 -16.484375 C 8.972656 -16.765625 9.203125 -17.425781 9.203125 -18.46875 L 9.203125 -22.0625 C 9.203125 -22.625 9.023438 -23.085938 8.671875 -23.453125 C 8.316406 -23.816406 7.84375 -24 7.25 -24 C 6.550781 -24 6.050781 -23.78125 5.75 -23.34375 C 5.445312 -22.90625 5.296875 -22.476562 5.296875 -22.0625 L 5.296875 -19.796875 L 1.328125 -19.796875 L 1.328125 -22.09375 C 1.328125 -22.894531 1.484375 -23.660156 1.796875 -24.390625 C 2.109375 -25.117188 2.535156 -25.742188 3.078125 -26.265625 C 3.617188 -26.785156 4.253906 -27.203125 4.984375 -27.515625 C 5.710938 -27.828125 6.492188 -27.984375 7.328125 -27.984375 C 8.421875 -27.984375 9.320312 -27.765625 10.03125 -27.328125 C 10.75 -26.898438 11.289062 -26.46875 11.65625 -26.03125 C 11.914062 -25.71875 12.140625 -25.398438 12.328125 -25.078125 C 12.523438 -24.753906 12.679688 -24.375 12.796875 -23.9375 C 12.921875 -23.507812 13.015625 -22.988281 13.078125 -22.375 C 13.140625 -21.769531 13.171875 -21.023438 13.171875 -20.140625 C 13.171875 -19.179688 13.148438 -18.398438 13.109375 -17.796875 C 13.066406 -17.203125 12.960938 -16.703125 12.796875 -16.296875 C 12.628906 -15.898438 12.382812 -15.554688 12.0625 -15.265625 C 11.738281 -14.984375 11.289062 -14.675781 10.71875 -14.34375 C 11.34375 -13.945312 11.816406 -13.582031 12.140625 -13.25 C 12.460938 -12.914062 12.703125 -12.519531 12.859375 -12.0625 C 13.015625 -11.601562 13.101562 -11.054688 13.125 -10.421875 C 13.15625 -9.785156 13.171875 -8.972656 13.171875 -7.984375 C 13.171875 -7.078125 13.148438 -6.320312 13.109375 -5.71875 C 13.066406 -5.125 13.007812 -4.625 12.9375 -4.21875 C 12.863281 -3.820312 12.757812 -3.476562 12.625 -3.1875 C 12.5 -2.90625 12.332031 -2.609375 12.125 -2.296875 C 11.625 -1.566406 10.984375 -0.960938 10.203125 -0.484375 C 9.429688 -0.00390625 8.429688 0.234375 7.203125 0.234375 C 6.585938 0.234375 5.925781 0.128906 5.21875 -0.078125 C 4.519531 -0.285156 3.882812 -0.625 3.3125 -1.09375 C 2.738281 -1.5625 2.265625 -2.171875 1.890625 -2.921875 C 1.515625 -3.671875 1.328125 -4.59375 1.328125 -5.6875 L 1.328125 -7.953125 L 5.296875 -7.953125 L 5.296875 -5.890625 C 5.296875 -5.265625 5.472656 -4.75 5.828125 -4.34375 C 6.179688 -3.9375 6.65625 -3.734375 7.25 -3.734375 C 7.84375 -3.734375 8.316406 -3.9375 8.671875 -4.34375 C 9.023438 -4.75 9.203125 -5.289062 9.203125 -5.96875 L 9.203125 -9.9375 C 9.203125 -10.476562 9.15625 -10.914062 9.0625 -11.25 C 8.96875 -11.59375 8.800781 -11.863281 8.5625 -12.0625 C 8.332031 -12.257812 8.015625 -12.390625 7.609375 -12.453125 C 7.210938 -12.515625 6.691406 -12.546875 6.046875 -12.546875 Z M 6.046875 -16.0625 "/></g></g></g></svg>